<?xml version="1.0" standalone="no"?>
<!DOCTYPE svg PUBLIC "-//W3C//DTD SVG 20010904//EN"
 "http://www.w3.org/TR/2001/REC-SVG-20010904/DTD/svg10.dtd">
<svg version="1.0" xmlns="http://www.w3.org/2000/svg"
 width="1200.000000pt" height="1200.000000pt" viewBox="0 0 1200.000000 1200.000000"
 preserveAspectRatio="xMidYMid meet">

<g transform="translate(0.000000,1200.000000) scale(0.100000,-0.100000)"
fill="#000000" stroke="none">
<path d="M5949 9370 c-62 -11 -98 -30 -146 -83 -74 -80 -110 -237 -93 -405 23
-225 119 -334 296 -335 139 -1 231 71 276 216 33 103 33 291 1 393 -51 161
-174 240 -334 214z m135 -145 c15 -14 37 -46 49 -73 19 -41 22 -64 22 -192 0
-131 -2 -150 -24 -198 -30 -66 -65 -92 -125 -92 -92 0 -140 78 -153 246 -10
140 23 266 83 313 39 31 112 29 148 -4z"/>
<path d="M5120 8965 l0 -405 65 0 65 0 0 190 0 190 150 0 150 0 0 60 0 60
-150 0 -150 0 0 95 0 95 185 0 185 0 0 60 0 60 -250 0 -250 0 0 -405z"/>
<path d="M6420 8965 l0 -405 65 0 65 0 0 190 0 190 150 0 150 0 0 60 0 60
-150 0 -150 0 0 95 0 95 185 0 185 0 0 60 0 60 -250 0 -250 0 0 -405z"/>
<path d="M7472 7888 c-7 -7 -12 -22 -12 -35 0 -27 42 -42 65 -23 28 23 11 70
-25 70 -9 0 -21 -5 -28 -12z"/>
<path d="M8450 7814 c0 -66 -2 -75 -15 -64 -21 17 -81 15 -111 -5 -51 -33 -69
-125 -38 -191 27 -56 96 -80 145 -51 17 10 23 10 26 0 3 -7 19 -13 36 -13 l32
0 0 200 0 200 -37 0 -38 0 0 -76z m-18 -121 c12 -11 18 -30 18 -60 0 -60 -14
-83 -50 -83 -37 0 -60 32 -60 84 0 66 49 98 92 59z"/>
<path d="M3490 7675 l0 -185 30 0 30 0 0 85 0 85 71 0 70 0 -3 28 c-3 26 -5
27 -68 27 l-65 0 0 45 0 45 83 0 82 -1 0 28 0 28 -115 0 -115 0 0 -185z"/>
<path d="M5633 7841 c-52 -32 -68 -73 -68 -171 0 -67 4 -92 20 -120 39 -66
127 -87 190 -46 81 53 87 254 10 326 -35 32 -109 38 -152 11z m113 -62 c28
-31 28 -187 0 -218 -31 -34 -76 -25 -99 19 -23 45 -20 154 6 193 22 34 66 36
93 6z"/>
<path d="M6790 7675 l0 -185 30 0 30 0 0 85 0 85 71 0 70 0 -3 28 c-3 26 -5
27 -68 27 l-65 0 0 45 0 45 83 0 82 -1 0 28 0 28 -115 0 -115 0 0 -185z"/>
<path d="M3853 7758 c-54 -11 -73 -33 -49 -56 13 -14 20 -14 36 -4 37 23 110
10 110 -19 0 -3 -21 -9 -46 -13 -94 -12 -145 -60 -130 -121 12 -47 93 -70 149
-41 23 13 27 13 27 0 0 -9 11 -14 35 -14 l35 0 0 98 c0 135 -16 160 -110 176
-8 1 -34 -2 -57 -6z m97 -157 c0 -23 -22 -47 -50 -56 -24 -7 -60 10 -60 30 0
21 41 45 77 45 26 0 33 -4 33 -19z"/>
<path d="M4235 7762 c-11 -2 -30 -13 -42 -25 l-23 -20 0 21 c0 18 -6 22 -35
22 l-35 0 0 -135 0 -135 35 0 35 0 0 74 c0 89 11 122 45 138 24 11 33 9 86
-19 10 -6 30 50 21 59 -13 13 -64 25 -87 20z"/>
<path d="M4467 7763 c-4 -3 -27 -5 -52 -5 l-45 2 0 -135 0 -135 30 0 30 0 0
104 c0 74 4 107 13 115 8 6 17 8 20 4 4 -3 7 -55 7 -115 l0 -108 30 0 30 0 0
98 c0 102 8 129 34 119 13 -5 16 -24 16 -112 l0 -105 30 0 30 0 0 113 c0 119
-9 149 -49 160 -11 2 -32 -1 -46 -9 -23 -12 -30 -11 -49 1 -12 8 -26 12 -29 8z"/>
<path d="M4772 7759 c-97 -20 -133 -157 -60 -229 45 -46 132 -52 186 -14 22
15 22 17 7 34 -15 17 -20 17 -52 4 -37 -16 -67 -11 -95 14 -38 33 -23 42 72
42 95 0 94 0 90 50 -6 74 -69 116 -148 99z m72 -65 c27 -27 18 -34 -44 -34
-33 0 -60 3 -60 7 0 3 7 15 17 25 20 22 66 24 87 2z"/>
<path d="M5135 7762 c-11 -2 -30 -13 -42 -25 l-23 -20 0 21 c0 18 -6 22 -35
22 l-35 0 0 -135 0 -135 35 0 35 0 0 74 c0 89 11 122 45 138 24 11 33 9 86
-19 10 -6 30 50 21 59 -13 13 -64 25 -87 20z"/>
<path d="M6335 7762 c-11 -2 -30 -13 -42 -25 l-23 -20 0 21 c0 18 -6 22 -35
22 l-35 0 0 -135 0 -135 35 0 35 0 0 74 c0 89 11 122 45 138 24 11 33 9 86
-19 10 -6 30 50 21 59 -13 13 -64 25 -87 20z"/>
<path d="M7235 7762 c-11 -2 -30 -13 -42 -25 l-23 -20 0 21 c0 18 -6 22 -35
22 l-35 0 0 -135 0 -135 35 0 35 0 0 74 c0 89 11 122 45 138 24 11 33 9 86
-19 10 -6 30 50 21 59 -13 13 -64 25 -87 20z"/>
<path d="M7772 7759 c-97 -20 -133 -157 -60 -229 45 -46 132 -52 186 -14 22
15 22 17 7 34 -15 17 -20 17 -52 4 -37 -16 -67 -11 -95 14 -38 33 -23 42 72
42 95 0 94 0 90 50 -6 74 -69 116 -148 99z m72 -65 c27 -27 18 -34 -44 -34
-33 0 -60 3 -60 7 0 3 7 15 17 25 20 22 66 24 87 2z"/>
<path d="M8107 7759 c-16 -4 -35 -13 -43 -20 -11 -9 -14 -8 -14 5 0 12 -9 16
-35 16 l-35 0 0 -135 0 -135 35 0 35 0 0 88 c0 101 14 132 59 132 37 0 41 -12
41 -126 l0 -94 35 0 35 0 0 103 c0 61 -5 112 -13 126 -16 32 -63 51 -100 40z"/>
<path d="M5882 7649 c3 -107 4 -112 31 -135 33 -28 82 -32 115 -8 20 14 23 14
28 0 4 -10 18 -16 35 -16 l29 0 0 135 0 135 -35 0 -35 0 0 -83 c0 -96 -14
-127 -59 -127 -37 0 -41 12 -41 121 l0 89 -36 0 -36 0 4 -111z"/>
<path d="M7400 7735 c0 -22 4 -25 35 -25 l35 0 0 -85 0 -85 -35 0 c-31 0 -35
-3 -35 -25 l0 -25 100 0 100 0 0 25 c0 21 -5 25 -30 25 l-30 0 0 110 0 110
-70 0 c-68 0 -70 -1 -70 -25z"/>
<path d="M5973 6590 c-83 -18 -93 -48 -93 -287 0 -178 2 -201 20 -230 24 -39
50 -54 99 -55 48 0 77 15 101 55 18 29 20 52 20 230 0 203 -5 234 -43 266 -24
19 -69 28 -104 21z"/>
<path d="M5312 6275 c-45 -37 -59 -91 -38 -137 10 -20 82 -99 160 -177 139
-136 145 -141 186 -141 52 0 95 25 115 66 34 72 22 94 -153 268 -136 135 -141
139 -189 143 -42 5 -53 2 -81 -22z"/>
<path d="M6555 6281 c-16 -10 -89 -79 -162 -153 -108 -110 -133 -141 -139
-172 -14 -76 43 -141 123 -141 42 0 46 3 193 150 163 163 179 187 158 251 -24
73 -109 105 -173 65z"/>
<path d="M3565 6144 c-16 -2 -73 -9 -125 -15 -95 -11 -111 -13 -250 -45 -142
-32 -160 -50 -194 -193 -75 -319 -86 -698 -30 -1041 58 -353 213 -745 413
-1045 364 -549 934 -997 1500 -1181 58 -19 119 -34 137 -34 45 0 101 50 110
96 15 81 -21 121 -153 164 -217 72 -422 174 -623 311 -390 266 -751 682 -942
1086 -26 56 -48 105 -48 108 0 3 264 5 588 5 l587 0 295 -296 c162 -162 307
-302 322 -310 92 -48 199 40 173 143 -3 15 -42 63 -86 108 l-79 82 2 693 3
693 100 -75 c55 -42 155 -126 223 -187 117 -106 125 -111 167 -111 53 0 98 33
115 85 19 59 0 94 -108 196 -423 400 -941 656 -1497 740 -133 20 -518 35 -600
23z m523 -258 c9 -5 12 -95 12 -374 l-1 -367 -354 360 c-195 198 -351 363
-347 367 17 17 184 26 422 24 141 -1 261 -5 268 -10z m507 -123 c55 -19 151
-59 213 -88 l112 -54 0 -648 0 -648 -285 285 -285 285 0 472 0 471 73 -20 c39
-11 117 -36 172 -55z m-371 -1090 l70 -73 -511 0 -511 0 -20 78 c-26 97 -48
211 -63 327 -17 125 -17 446 0 584 l14 115 475 -480 c261 -263 506 -512 546
-551z"/>
<path d="M8030 6144 c-113 -8 -338 -46 -473 -80 -665 -168 -1279 -619 -1699
-1249 -163 -245 -318 -613 -382 -905 -82 -379 -82 -803 1 -1154 34 -146 53
-167 179 -201 123 -32 268 -53 463 -66 474 -32 1003 89 1433 326 729 403 1281
1121 1452 1885 89 398 87 831 -5 1212 -32 134 -50 146 -279 192 -41 8 -109 20
-150 26 -78 11 -443 21 -540 14z m483 -255 c59 -7 107 -14 107 -18 0 -3 -196
-202 -435 -441 l-435 -435 0 432 c0 402 1 432 18 437 132 40 484 52 745 25z
m-1003 -612 l0 -522 -400 -400 -400 -400 0 715 0 715 95 67 c109 78 274 175
384 226 72 33 297 121 314 122 4 0 7 -235 7 -523z m1311 223 c32 -361 -23
-735 -163 -1102 l-29 -78 -607 0 -607 0 690 690 690 690 7 -32 c4 -18 12 -94
19 -168z m-2351 -1057 l-1 -728 -388 -395 c-351 -357 -388 -392 -394 -370 -34
144 -33 566 2 776 70 416 220 762 477 1104 85 112 285 340 300 340 2 0 4 -327
4 -727z m2019 -395 c-70 -134 -272 -391 -431 -550 l-118 -118 -728 0 -727 0
345 345 345 345 663 0 663 0 -12 -22z m-889 -922 c0 -9 -217 -131 -304 -171
-320 -149 -669 -225 -1037 -225 -152 0 -338 13 -378 26 -10 3 48 68 169 189
l185 185 682 0 c376 0 683 -2 683 -4z"/>
<path d="M4111 3832 c-46 -23 -75 -80 -66 -129 8 -44 54 -90 99 -98 70 -14
146 49 146 120 0 43 -35 94 -75 111 -45 18 -63 18 -104 -4z"/>
<path d="M4424 3581 c-11 -5 -33 -23 -47 -41 -38 -44 -37 -106 1 -151 98 -118
649 -389 789 -389 39 0 50 5 79 36 64 68 38 166 -53 199 -245 89 -409 168
-565 272 -114 76 -160 93 -204 74z"/>
</g>
</svg>
